<svg width="300" height="75" viewBox="0 0 300 75" fill="none" xmlns="http://www.w3.org/2000/svg">
<g clip-path="url(#clip0)">
<path d="M181.251 65.8566H179.979V58.5488H181.251V65.8566Z" fill="white"/>
<path d="M193.064 58.5488V64.5421C193.064 65.3377 192.433 65.969 191.637 65.969C191.24 65.969 190.885 65.8134 190.617 65.5453L184.624 59.4655V65.8566H183.352V59.8634C183.352 59.0677 183.984 58.4364 184.779 58.4364C185.177 58.4364 185.532 58.5921 185.8 58.8602L191.793 64.9399V58.5488H193.064Z" fill="white"/>
<path d="M204.316 59.8201H200.19V65.848H198.919V59.8201H194.794V58.5488H204.316V59.8201Z" fill="white"/>
<path d="M215.411 65.8566H207.766C206.668 65.8566 205.786 64.9745 205.786 63.8762V60.5379C205.786 59.4396 206.668 58.5575 207.766 58.5575H215.411V59.8288H207.049V61.5757H215.411V62.847H207.049V64.594H215.411V65.8566Z" fill="white"/>
<path d="M225.245 65.8566H219.502C218.404 65.8566 217.522 64.9745 217.522 63.8762V58.5488H218.793V64.5767H225.245V65.8566Z" fill="white"/>
<path d="M234.429 65.8566H228.686C227.588 65.8566 226.706 64.9745 226.706 63.8762V58.5488H227.977V64.5767H234.429V65.8566Z" fill="white"/>
<path d="M237.438 65.8566H236.167V58.5488H237.438V65.8566Z" fill="white"/>
<path d="M249.166 63.8675C249.166 64.9658 248.283 65.848 247.185 65.848H241.52C240.422 65.848 239.54 64.9658 239.54 63.8675V60.5379C239.54 59.4396 240.422 58.5575 241.52 58.5575H249.166V59.8288H240.803V64.594H247.894V62.847H244.175V61.5757H249.166V63.8675Z" fill="white"/>
<path d="M260.901 65.8566H253.256C252.158 65.8566 251.276 64.9745 251.276 63.8762V60.5379C251.276 59.4396 252.158 58.5575 253.256 58.5575H260.901V59.8288H252.539V61.5757H260.901V62.847H252.539V64.594H260.901V65.8566Z" fill="white"/>
<path d="M272.706 58.5488V64.5421C272.706 65.3377 272.075 65.969 271.279 65.969C270.881 65.969 270.527 65.8134 270.259 65.5453L264.265 59.4655V65.8566H262.994V59.8634C262.994 59.0677 263.625 58.4364 264.421 58.4364C264.819 58.4364 265.173 58.5921 265.442 58.8602L271.435 64.9399V58.5488H272.706Z" fill="white"/>
<path d="M284.442 65.8566H276.797C275.699 65.8566 274.816 64.9745 274.816 63.8762V60.5379C274.816 59.4396 275.699 58.5575 276.797 58.5575H284.442V59.8288H276.079V64.594H284.442V65.8566Z" fill="white"/>
<path d="M295.667 65.8566H288.022C286.924 65.8566 286.042 64.9745 286.042 63.8762V60.5379C286.042 59.4396 286.924 58.5575 288.022 58.5575H295.667V59.8288H287.305V61.5757H295.667V62.847H287.305V64.594H295.667V65.8566Z" fill="white"/>
<path d="M134.602 64.2135C134.602 65.3118 133.72 66.1939 132.621 66.1939H124.976V58.8948H132.621C133.72 58.8948 134.602 59.7769 134.602 60.8752V64.2135ZM133.331 64.9313V60.1661H126.239V64.9313H133.331Z" fill="white"/>
<path d="M147.721 66.1939H146.121L144.902 64.4729H138.26L137.058 66.1939H135.458L140.232 59.5174C140.535 59.0937 141.027 58.7737 141.581 58.7737C142.152 58.7737 142.627 59.0937 142.93 59.5174L147.721 66.1939ZM143.994 63.2102L141.59 59.7596L139.185 63.2102H143.994Z" fill="white"/>
<path d="M155.799 60.1661H151.674V66.1939H150.402V60.1661H146.277V58.8948H155.799V60.1661Z" fill="white"/>
<path d="M166.618 66.1939H165.018L163.798 64.4729H157.157L155.954 66.1939H154.354L159.128 59.5174C159.431 59.0937 159.924 58.7737 160.477 58.7737C161.048 58.7737 161.524 59.0937 161.827 59.5174L166.618 66.1939ZM162.89 63.2102L160.486 59.7596L158.082 63.2102H162.89Z" fill="white"/>
<path d="M173.519 61.3422L178.898 52.028H165.459L170.838 61.3422C171.426 62.3713 172.922 62.3713 173.519 61.3422Z" fill="white"/>
<path d="M170.829 65.0177L165.45 74.3319H178.89L173.51 65.0177C172.922 63.9886 171.426 63.9886 170.829 65.0177Z" fill="white"/>
<path d="M108.372 59.0331C109.703 59.0331 110.465 59.8201 110.465 60.8838C110.465 61.593 110.041 62.1638 109.47 62.354C110.136 62.5184 110.681 63.1324 110.681 63.9799C110.681 65.0956 109.85 65.8912 108.562 65.8912H105.916V59.0331H108.372ZM108.164 61.8697C108.778 61.8697 109.141 61.5325 109.141 61.0049C109.141 60.4774 108.804 60.1574 108.155 60.1574H107.221V61.8697H108.164ZM108.302 64.7842C108.951 64.7842 109.34 64.4469 109.34 63.8934C109.34 63.3486 108.994 62.9767 108.328 62.9767H107.23V64.7842H108.302Z" fill="white"/>
<path d="M110.983 59.0331H112.549L114.088 61.7487L115.628 59.0331H117.124L114.702 63.0113V65.8912H113.37V63.0113L110.983 59.0331Z" fill="white"/>
<path d="M0 40.768V0.406494H12.5141C20.3494 0.406494 25.7892 5.08521 25.7892 17.9538V23.2206C25.7892 36.0287 20.3494 40.768 12.5141 40.768H0ZM17.6079 23.2206V17.9538C17.6079 11.1736 16.7344 7.36835 12.5227 7.36835H8.19856V33.8061H12.5227C16.7258 33.8061 17.6079 30.0009 17.6079 23.2206Z" fill="white"/>
<path d="M37.1357 40.768H28.5999L40.2318 0.406494H48.1882L59.8288 40.7593H51.2843L49.3557 33.097H39.0643L37.1357 40.768ZM44.21 11.9865L40.6988 26.2043H47.7212L44.21 11.9865Z" fill="white"/>
<path d="M85.6179 0.406494V7.36836H76.8485V40.7593H68.6586V7.36836H59.8806V0.406494H85.6179Z" fill="white"/>
<path d="M94.2143 40.768H85.6785L97.319 0.415131H105.275L116.916 40.768H108.38L106.452 33.1056H96.1602L94.2143 40.768ZM101.289 11.9865L97.7774 26.1956H104.8L101.289 11.9865Z" fill="white"/>
<path d="M140.353 12.5746C139.237 5.73381 136.496 3.15662 132.345 3.15662C127.138 3.15662 124.336 7.13483 124.336 18.1268V23.039C124.336 34.0915 127.147 38.0092 132.345 38.0092C136.79 38.0092 139.306 34.9131 140.353 28.4788H143.57C142.636 37.5422 138.07 41.1658 132.345 41.1658C125.322 41.1658 120.938 36.0806 120.938 23.039V18.1268C120.938 5.08518 125.322 0 132.345 0C138.312 0 142.636 3.7447 143.631 12.5746H140.353Z" fill="white"/>
<path d="M159.362 41.1744C152.46 41.1744 147.955 35.7952 147.955 23.0477V18.1354C147.955 5.43976 152.46 0 159.362 0C166.263 0 170.769 5.43976 170.769 18.1268V23.039C170.76 35.7952 166.263 41.1744 159.362 41.1744ZM151.345 23.0477C151.345 33.9877 154.268 38.0178 159.353 38.0178C164.438 38.0178 167.361 33.9791 167.361 23.0477V18.1354C167.361 7.2559 164.438 3.16527 159.353 3.16527C154.268 3.16527 151.345 7.2559 151.345 18.1268V23.0477Z" fill="white"/>
<path d="M177.021 0.406494L186.5 35.0861L195.978 0.406494H199.542L188.134 40.7593H184.857L173.45 0.406494H177.021Z" fill="white"/>
<path d="M208.069 40.768H204.679V0.406494H208.069V40.768Z" fill="white"/>
<path d="M216.959 40.768V0.406494H226.844C233.918 0.406494 238.424 5.14575 238.424 18.1873V22.9785C238.424 36.0201 233.918 40.7593 226.844 40.7593H216.959V40.768ZM235.034 22.9871V18.196C235.034 7.1435 232.111 3.57176 226.844 3.57176H220.349V37.6114H226.844C232.111 37.6027 235.034 34.2126 235.034 22.9871Z" fill="white"/>
<path d="M242.403 22.399H254.104V25.3827H242.403V22.399Z" fill="white"/>
<path d="M269.766 40.768H266.376V4.6182L261.818 8.76937V4.85171L266.376 0.406494H269.766V40.768Z" fill="white"/>
<path d="M293.92 22.6325C292.926 23.4541 291.231 23.8606 289.83 23.8606C284.623 23.8606 281.294 19.1213 281.294 12.047C281.294 4.67872 284.978 0 290.651 0C296.203 0 300.009 4.61818 300.009 11.459C300.009 15.2037 298.841 18.5333 297.146 23.2725L290.945 40.7593H287.382L293.92 22.6325ZM290.643 3.15662C286.664 3.15662 284.675 6.60728 284.675 12.047C284.675 17.3138 286.664 20.8164 290.643 20.8164C294.621 20.8164 296.61 17.3052 296.61 12.047C296.61 6.60728 294.621 3.15662 290.643 3.15662Z" fill="white"/>
</g>
<defs>
<clipPath id="clip0">
<rect width="300" height="74.3319" fill="white"/>
</clipPath>
</defs>
</svg>
