<svg xmlns="http://www.w3.org/2000/svg" width="198" height="26" fill="none" viewBox="0 0 198 26"><g clip-path="url(#clip0)"><path fill="#888" d="M65.08 15.98H63.61V7.54001H65.08V15.98Z"/><path fill="#888" d="M78.73 7.54V14.47C78.73 15.39 78 16.12 77.08 16.12C76.62 16.12 76.21 15.94 75.9 15.63L68.97 8.6V15.99H67.5V9.06C67.5 8.14 68.23 7.41 69.15 7.41C69.61 7.41 70.02 7.59 70.33 7.9L77.26 14.93V7.54H78.73Z"/><path fill="#888" d="M91.75 9.01001H86.98V15.98H85.51V9.01001H80.74V7.54001H91.75V9.01001Z"/><path fill="#888" d="M104.58 15.98H95.74C94.47 15.98 93.45 14.96 93.45 13.69V9.84002C93.45 8.57002 94.47 7.55002 95.74 7.55002H104.58V9.02002H94.91V11.04H104.58V12.51H94.91V14.53H104.58V15.98Z"/><path fill="#888" d="M115.94 15.98H109.3C108.03 15.98 107.01 14.96 107.01 13.69V7.54001H108.48V14.51H115.94V15.98Z"/><path fill="#888" d="M126.57 15.98H119.93C118.66 15.98 117.64 14.96 117.64 13.69V7.54001H119.11V14.51H126.57V15.98Z"/><path fill="#888" d="M130.04 15.98H128.57V7.54001H130.04V15.98Z"/><path fill="#888" d="M143.61 13.69C143.61 14.96 142.59 15.98 141.32 15.98H134.77C133.5 15.98 132.48 14.96 132.48 13.69V9.84002C132.48 8.57002 133.5 7.55002 134.77 7.55002H143.61V9.02002H133.94V14.53H142.14V12.5H137.84V11.03H143.61V13.69Z"/><path fill="#888" d="M157.17 15.98H148.33C147.06 15.98 146.04 14.96 146.04 13.69V9.84002C146.04 8.57002 147.06 7.55002 148.33 7.55002H157.17V9.02002H147.5V11.04H157.17V12.51H147.5V14.53H157.17V15.98Z"/><path fill="#888" d="M170.83 7.54V14.47C170.83 15.39 170.1 16.12 169.18 16.12C168.72 16.12 168.31 15.94 168 15.63L161.07 8.6V15.99H159.6V9.06C159.6 8.14 160.33 7.41 161.25 7.41C161.71 7.41 162.12 7.59 162.43 7.9L169.36 14.93V7.54H170.83Z"/><path fill="#888" d="M184.39 15.98H175.55C174.28 15.98 173.26 14.96 173.26 13.69V9.84002C173.26 8.57002 174.28 7.55002 175.55 7.55002H184.39V9.02002H174.72V14.53H184.39V15.98Z"/><path fill="#888" d="M197.38 15.98H188.54C187.27 15.98 186.25 14.96 186.25 13.69V9.84002C186.25 8.57002 187.27 7.55002 188.54 7.55002H197.38V9.02002H187.71V11.04H197.38V12.51H187.71V14.53H197.38V15.98Z"/><path fill="#888" d="M11.13 14.09C11.13 15.36 10.11 16.38 8.84 16.38H0V7.94H8.84C10.11 7.94 11.13 8.96 11.13 10.23V14.09ZM9.67 14.92V9.41H1.47V14.92H9.67Z"/><path fill="#888" d="M26.3 16.38H24.45L23.04 14.39H15.36L13.97 16.38H12.12L17.64 8.65999C18 8.16999 18.57 7.79999 19.21 7.79999C19.87 7.79999 20.42 8.16999 20.77 8.65999L26.3 16.38ZM21.99 12.93L19.21 8.93999L16.43 12.93H21.99Z"/><path fill="#888" d="M35.65 9.41H30.88V16.38H29.41V9.41H24.64V7.94H35.65V9.41Z"/><path fill="#888" d="M48.16 16.38H46.31L44.9 14.4H37.22L35.83 16.39H33.98L39.5 8.67C39.85 8.18 40.42 7.81 41.06 7.81C41.72 7.81 42.27 8.18 42.62 8.67L48.16 16.38ZM43.85 12.93L41.07 8.94L38.29 12.93H43.85Z"/><path fill="#888" d="M56.1301 10.77L62.3501 0H46.8101L53.0301 10.77C53.7201 11.96 55.4401 11.96 56.1301 10.77Z"/><path fill="#888" d="M53.0301 15.02L46.8101 25.79H62.3501L56.1301 15.02C55.4401 13.83 53.7201 13.83 53.0301 15.02Z"/></g><defs><clipPath id="clip0"><rect width="197.38" height="25.79" fill="#fff"/></clipPath></defs></svg>