<svg xmlns="http://www.w3.org/2000/svg" width="62" height="30" fill="none" viewBox="0 0 62 30"><path fill="#fff" d="M10.9974 9.48399C10.4072 4.74952 8.94895 2.97597 6.73849 2.97597C3.97252 2.97597 2.47959 5.72647 2.47959 13.3167V16.7134C2.47959 24.3487 3.97252 27.0541 6.73849 27.0541C9.0994 27.0541 10.4419 24.9199 10.9974 20.471H12.7102C12.2126 26.7385 9.78221 29.2335 6.73849 29.2335C3.00038 29.2335 0.674194 25.7165 0.674194 16.7134V13.3317C0.674194 4.31365 3.01195 0.811646 6.73849 0.811646C9.90951 0.811646 12.2126 3.39682 12.7449 9.49902H10.9974V9.48399Z"/><path fill="#fff" d="M17.7098 13.4068H25.4522V1.08218H27.2576V28.9629H25.4522V15.5862H17.7098V28.9629H15.9044V1.08218H17.7098V13.4068Z"/><path fill="#fff" d="M33.7963 28.9629H31.9909V1.08218H33.7963V28.9629Z"/><path fill="#fff" d="M40.3351 26.7836H48.6099V28.9629H38.5297V1.08218H40.3351V26.7836Z"/><path fill="#fff" d="M61.0509 1.08218V3.26154H52.7762V13.4519H60.3334V15.6313H52.7762V26.7836H61.0509V28.9629H50.9708V1.08218H61.0509Z"/></svg>