<svg xmlns="http://www.w3.org/2000/svg" width="18" height="18" fill="none" viewBox="0 0 18 18"><path fill="#fff" d="M18 0.99704V17.003C18 17.551 17.5586 18 17.003 18H12.4211V11.0283H14.7501L15.1002 8.31121H12.4135V6.5759C12.4135 5.79197 12.6266 5.26681 13.7607 5.26681L15.1915 5.25159V2.82368C14.948 2.78562 14.0879 2.71712 13.1061 2.71712C11.0283 2.71712 9.60507 3.98055 9.60507 6.3019V8.30359H7.2685V11.0207H9.61269V17.9924H0.99704C0.449049 18 0 17.551 0 17.003V0.99704C0 0.441438 0.449049 0 0.99704 0H17.003C17.551 0 18 0.441438 18 0.99704Z"/></svg>