<svg xmlns="http://www.w3.org/2000/svg" width="19" height="19" fill="none" viewBox="0 0 19 19"><path fill="#fff" d="M18.9296 12.8416C18.8612 14.2793 18.5341 15.5572 17.4767 16.6145C16.4193 17.6719 15.1489 17.999 13.7035 18.0674C12.4636 18.1359 11.2312 18.1283 9.99124 18.1283C8.75128 18.1283 7.51892 18.1435 6.27895 18.0674C4.8412 17.999 3.5632 17.6719 2.50581 16.6145C1.44842 15.5572 1.12131 14.2869 1.05284 12.8416C0.991987 11.6017 0.999594 10.3694 0.999594 9.12951C0.999594 7.88962 0.98438 6.65733 1.06045 5.41743C1.12892 3.97976 1.45602 2.70183 2.51342 1.6445C3.57081 0.587161 4.8412 0.260072 6.28656 0.191611C7.52653 0.123151 8.75888 0.130759 9.99885 0.130759C11.2388 0.130759 12.4712 0.115544 13.7111 0.191611C15.1489 0.260072 16.4269 0.587161 17.4843 1.6445C18.5417 2.70183 18.8688 3.97215 18.9372 5.41743C19.0057 6.65733 18.9981 7.88962 18.9981 9.12951C18.9981 10.3694 19.0057 11.6017 18.9296 12.8416ZM4.68906 2.10851C4.27827 2.27585 3.97399 2.47363 3.6621 2.7855C3.3426 3.10499 3.14481 3.40926 2.97745 3.82002C2.50581 4.99906 2.61231 7.81355 2.61231 9.12191C2.61231 10.4303 2.50581 13.2448 2.97745 14.4238C3.14481 14.8346 3.3426 15.1388 3.65449 15.4507C3.97399 15.7702 4.27827 15.968 4.68145 16.1277C5.86817 16.5993 8.6752 16.4928 9.98363 16.4928C11.2921 16.4928 14.1067 16.5993 15.2858 16.1277C15.6966 15.9604 16.0009 15.7626 16.3128 15.4507C16.6323 15.1312 16.8301 14.827 16.9898 14.4238C17.4615 13.2448 17.355 10.4303 17.355 9.12191C17.355 7.81355 17.4615 4.99906 16.9898 3.82002C16.8225 3.40926 16.6247 3.10499 16.3128 2.79311C15.9933 2.47363 15.689 2.27585 15.2858 2.11611C14.0991 1.64449 11.2921 1.75099 9.98363 1.75099C8.6752 1.75099 5.87577 1.6445 4.68906 2.10851ZM9.99885 13.7392C7.44285 13.7392 5.38131 11.6778 5.38131 9.12191C5.38131 6.56605 7.44285 4.50463 9.99885 4.50463C12.5548 4.50463 14.6164 6.56605 14.6164 9.12191C14.6164 11.6778 12.5472 13.7392 9.99885 13.7392ZM9.99885 6.13247C8.3481 6.13247 7.00163 7.47886 7.00163 9.12951C7.00163 10.7802 8.3481 12.1266 9.99885 12.1266C11.6496 12.1266 12.9961 10.7802 12.9961 9.12951C12.9961 7.47886 11.6496 6.13247 9.99885 6.13247ZM14.799 5.40222C14.198 5.40222 13.7187 4.923 13.7187 4.32206C13.7187 3.72113 14.198 3.24191 14.799 3.24191C15.3999 3.24191 15.8792 3.72113 15.8792 4.32206C15.8792 4.923 15.3923 5.40222 14.799 5.40222Z"/></svg>