<svg width="43" height="94" viewBox="0 0 43 94" fill="none" xmlns="http://www.w3.org/2000/svg">
<path d="M25.7965 31.7999L43 0H0L17.2035 31.7999C19.114 35.3228 23.886 35.3228 25.7965 31.7999Z" fill="white"/>
<path d="M17.2035 62.2095L0 94H43L25.7965 62.2095C23.886 58.6772 19.114 58.6772 17.2035 62.2095Z" fill="white"/>
<path d="M22.169 40.1985L22.6797 39.2121C23.0406 38.5169 24.0355 38.7987 24.0179 39.5972L24.0003 40.7246C23.9915 41.3258 24.599 41.7016 25.0832 41.3916L25.9901 40.8091C26.6328 40.4051 27.3547 41.1755 26.9673 41.8519L26.4215 42.8195C26.1309 43.3362 26.4831 43.9844 27.0466 43.975L28.1031 43.9562C28.8514 43.9468 29.1156 44.999 28.4641 45.3842L27.5396 45.929C27.0466 46.2203 27.0466 46.9718 27.5396 47.263L28.4641 47.8079C29.1156 48.1931 28.8514 49.2546 28.1031 49.2359L27.0466 49.2171C26.4831 49.2077 26.1309 49.8559 26.4215 50.3726L26.9673 51.3402C27.3459 52.026 26.624 52.7963 25.9901 52.383L25.0832 51.8005C24.599 51.4905 23.9915 51.8663 24.0003 52.4675L24.0179 53.5948C24.0267 54.3934 23.0406 54.6752 22.6797 53.98L22.169 52.9936C21.8961 52.4675 21.1917 52.4675 20.9188 52.9936L20.4082 53.98C20.0472 54.6752 19.0523 54.3934 19.0699 53.5948L19.0875 52.4675C19.0963 51.8663 18.4888 51.4905 18.0046 51.8005L17.0978 52.383C16.455 52.7869 15.7331 52.0166 16.1205 51.3402L16.6663 50.3726C16.9569 49.8559 16.6047 49.2077 16.0412 49.2171L14.9671 49.2546C14.2188 49.264 13.9546 48.2119 14.6061 47.8267L15.5306 47.2818C16.0236 46.9906 16.0236 46.239 15.5306 45.9478L14.6061 45.403C13.9546 45.0178 14.2188 43.9562 14.9671 43.975L16.0236 43.9938C16.5871 44.0032 16.9393 43.355 16.6487 42.8383L16.1029 41.8707C15.7243 41.1849 16.4462 40.4145 17.0801 40.8279L17.987 41.4103C18.4712 41.7204 19.0787 41.3446 19.0699 40.7433L19.0523 39.616C19.0435 38.8175 20.0296 38.5357 20.3905 39.2309L20.9012 40.2173C21.1917 40.7246 21.8961 40.7246 22.169 40.1985Z" fill="white"/>
</svg>
