<svg width="19" height="19" viewBox="0 0 19 19" fill="none" xmlns="http://www.w3.org/2000/svg">
<path d="M16.8408 4.73473C16.8557 4.93574 16.8557 5.12762 16.8557 5.32863C16.8557 11.3317 13.1443 18.2576 6.35257 18.2576C4.25937 18.2576 2.32205 17.5083 0.681641 16.22C0.978548 16.2657 1.26803 16.2748 1.57236 16.2748C3.30185 16.2748 4.88288 15.553 6.15216 14.3378C4.52659 14.2921 3.16824 12.9855 2.70061 11.1855C2.93071 11.2312 3.16082 11.2586 3.39834 11.2586C3.73236 11.2586 4.05896 11.2038 4.37071 11.1033C2.67834 10.6829 1.40906 8.85554 1.40906 6.64437C1.40906 6.6261 1.40906 6.59869 1.40906 6.58955C1.89896 6.92762 2.47051 7.13777 3.07917 7.16518C2.08453 6.35198 1.43133 4.95401 1.43133 3.38244C1.43133 2.54183 1.6169 1.76518 1.93607 1.08904C3.75463 3.84843 6.48618 5.64843 9.54432 5.84031C9.48494 5.50224 9.45525 5.15503 9.45525 4.79869C9.45525 2.29513 11.1031 0.257568 13.1443 0.257568C14.2058 0.257568 15.1707 0.805791 15.8388 1.69209C16.6701 1.49107 17.4717 1.11645 18.1843 0.595635C17.9097 1.65553 17.3233 2.5327 16.5588 3.09919C17.301 2.99869 18.021 2.75198 18.6816 2.39564C18.1917 3.28193 17.5608 4.086 16.8408 4.73473Z" fill="white"/>
</svg>
